<?xml version="1.0" encoding="utf-8"?>
<!-- Generator: Adobe Illustrator 16.0.4, SVG Export Plug-In . SVG Version: 6.00 Build 0)  -->
<!DOCTYPE svg PUBLIC "-//W3C//DTD SVG 1.1//EN" "http://www.w3.org/Graphics/SVG/1.1/DTD/svg11.dtd">
<svg version="1.1" id="Capa_1" xmlns="http://www.w3.org/2000/svg" xmlns:xlink="http://www.w3.org/1999/xlink" x="0px" y="0px"
	 width="19.883px" height="18.555px" viewBox="0 0 19.883 18.555" enable-background="new 0 0 19.883 18.555" xml:space="preserve">
<path style="fill:#fff" d="M19.883,8.751V8.383c-1.299-0.666-2.291-1.721-2.749-2.999l-0.019,0.008V5.373h-1.29v0.01l-0.013-0.005
	c-0.806,2.246-3.168,3.429-5.882,3.429c-2.713,0-5.075-1.182-5.881-3.424l-0.025,0.01v-0.02H2.74v0.051
	C2.272,6.684,1.288,7.727,0,8.385v0.367c0.232-0.108,0.449-0.24,0.663-0.374v1.735H0.009v0.707H2.74v2.361h1.284v-2.361h11.801
	v2.361h1.29v-2.361h2.768v-0.705H19.23V8.38C19.441,8.511,19.654,8.642,19.883,8.751z M1.845,10.115H0.841V8.279
	c0.372-0.248,0.701-0.542,1.004-0.855V10.115z M2.74,10.115H2.022V7.232C2.295,6.928,2.543,6.606,2.74,6.256V10.115z M4.81,10.115
	H4.024V6.188C4.236,6.586,4.509,6.931,4.81,7.247V10.115z M6.238,10.115H4.989V7.439c0.367,0.347,0.789,0.632,1.249,0.87V10.115z
	 M7.667,10.115H6.418V8.407C6.807,8.594,7.23,8.731,7.667,8.844V10.115z M9.096,10.115h-1.25V8.893
	c0.404,0.094,0.818,0.164,1.25,0.2V10.115z M10.525,10.115h-1.25V9.101C9.492,9.118,9.708,9.133,9.93,9.133
	c0.201,0,0.398-0.017,0.595-0.027V10.115z M11.953,10.115h-1.25V9.096c0.431-0.033,0.846-0.097,1.25-0.188V10.115z M13.381,10.115
	h-1.249V8.863c0.438-0.11,0.858-0.248,1.249-0.429V10.115z M14.811,10.115h-1.252V8.344c0.461-0.229,0.883-0.507,1.252-0.841V10.115
	z M15.825,10.115h-0.837V7.314c0.324-0.326,0.611-0.688,0.837-1.107V10.115z M17.869,10.115h-0.754V6.189
	c0.201,0.377,0.466,0.721,0.754,1.046V10.115z M19.055,10.115h-1.008V7.427c0.305,0.312,0.635,0.604,1.008,0.852V10.115z"/>
</svg>
